<?xml version="1.0" encoding="UTF-8" standalone="no" ?>
<!DOCTYPE svg PUBLIC "-//W3C//DTD SVG 1.1//EN" "http://www.w3.org/Graphics/SVG/1.1/DTD/svg11.dtd">
<svg xmlns="http://www.w3.org/2000/svg" xmlns:xlink="http://www.w3.org/1999/xlink" version="1.1" width="400" height="400" viewBox="0 0 400 400" xml:space="preserve">
<desc>Created with Fabric.js 3.6.2</desc>
<defs>
</defs>
<g transform="matrix(11.24 0 0 11.24 200 200)"  >
<path style="stroke: none; stroke-width: 1; stroke-dasharray: none; stroke-linecap: butt; stroke-dashoffset: 0; stroke-linejoin: miter; stroke-miterlimit: 4; fill: rgb(0,191,255); fill-rule: nonzero; opacity: 1;"  transform=" translate(-12, -12)" d="M 11.103 10.43793 a 1.78593 1.78593 0 1 0 2.43957 0.65362 A 1.786 1.786 0 0 0 11.103 10.43793 Z m 8.0047 1.93768 q -0.17587 -0.201 -0.37116 -0.40308 q 0.13641 -0.14337 0.264 -0.28649 c 1.60583 -1.80427 2.28357 -3.61371 1.65558 -4.70154 c -0.60217 -1.043 -2.39343 -1.35382 -4.63593 -0.91779 q -0.33132 0.06482 -0.659 0.14624 q -0.06272 -0.21624 -0.13343 -0.43 C 14.467 3.49042 13.2381 1.99921 11.98206 2 C 10.77765 2.00055 9.61359 3.39709 8.871 5.5575 q -0.10959 0.31969 -0.20276 0.64471 q -0.21908 -0.05375 -0.44 -0.0993 c -2.366 -0.48578 -4.27167 -0.16584 -4.89844 0.9226 c -0.601 1.04376 0.02753 2.74982 1.52851 4.47211 q 0.22329 0.25562 0.45922 0.49976 c -0.18542 0.191 -0.361 0.38189 -0.52465 0.57171 c -1.4646 1.698 -2.05719 3.37616 -1.45716 4.41541 c 0.61969 1.07348 2.49854 1.42437 4.7854 0.97436 q 0.278 -0.05511 0.55292 -0.124 q 0.10071 0.35156 0.22095 0.697 c 0.73932 2.11706 1.89685 3.46863 3.097 3.4682 c 1.23944 -0.00073 2.48194 -1.45288 3.23474 -3.65875 c 0.05945 -0.17432 0.11573 -0.35535 0.16907 -0.54175 q 0.35514 0.08835 0.71485 0.1568 c 2.20336 0.41687 3.95251 0.089 4.55145 -0.951 C 21.28058 15.93109 20.64288 14.12933 19.10767 12.37561 Z M 4.07019 7.45184 c 0.38586 -0.67 1.94324 -0.93139 3.98608 -0.512 q 0.19584 0.04027 0.39838 0.09 a 20.464 20.464 0 0 0 -0.42126 2.67767 a 20.88659 20.88659 0 0 0 -2.10389 1.6936 q -0.21945 -0.22695 -0.42718 -0.4649 l 0.00006 0.00006 C 4.21631 9.46057 3.708 8.08081 4.07019 7.45184 Z m 3.88666 5.72809 c -0.51056 -0.3866 -0.98505 -0.78265 -1.41571 -1.181 c 0.43036 -0.39587 0.90515 -0.79059 1.41467 -1.17615 q -0.02746 0.58915 -0.02722 1.1792 Q 7.929 12.59117 7.95685 13.17993 Z m -0.00061 3.94061 a 7.23675 7.23675 0 0 1 -2.63971 0.09314 a 1.766 1.766 0 0 1 -1.241 -0.65631 c -0.36407 -0.63067 0.11176 -1.978 1.36432 -3.43023 q 0.23621 -0.273 0.48791 -0.53174 a 20.49026 20.49026 0 0 0 2.10712 1.70007 a 20.80226 20.80226 0 0 0 0.42621 2.712 Q 8.21011 17.07023 7.95624 17.12054 Z m 7.10113 -8.03936 q -0.50309 -0.317 -1.01861 -0.61365 q -0.5073 -0.292 -1.0268 -0.56207 c 0.593 -0.24933 1.17591 -0.46228 1.73865 -0.63581 A 18.21775 18.21775 0 0 1 15.05737 9.08118 Z M 9.679 5.83521 c 0.63623 -1.85114 1.57763 -2.98053 2.30352 -2.98084 c 0.77308 -0.00037 1.77753 1.21826 2.43433 3.19763 q 0.064 0.19355 0.121 0.38928 a 20.478 20.478 0 0 0 -2.52716 0.9712 a 20.06145 20.06145 0 0 0 -2.519 -0.98194 Q 9.578 6.13062 9.679 5.83521 Z M 9.27863 7.259 a 18.30717 18.30717 0 0 1 1.72967 0.642 Q 9.95746 8.4433 8.96094 9.0824 C 9.0412 8.4444 9.148 7.83313 9.27863 7.259 Z M 8.9624 14.91968 q 0.49695 0.31813 1.00843 0.61273 q 0.52174 0.30039 1.05737 0.57556 a 18.19577 18.19577 0 0 1 -1.74445 0.66492 C 9.15161 16.1908 9.04364 15.56879 8.9624 14.91968 Z m 5.45569 3.14551 A 7.23556 7.23556 0 0 1 13.18 20.39844 l -0.00006 0.00006 a 1.76585 1.76585 0 0 1 -1.18841 0.747 c -0.72821 0.00042 -1.65766 -1.085 -2.28992 -2.89545 q -0.11169 -0.32108 -0.20551 -0.648 a 20.10863 20.10863 0 0 0 2.52918 -1.0097 a 20.79976 20.79976 0 0 0 2.54736 0.97851 Q 14.50141 17.81983 14.41809 18.06519 Z m 0.36224 -1.32422 c -0.56921 -0.176 -1.16058 -0.39252 -1.76214 -0.64551 q 0.50867 -0.2677 1.02472 -0.56543 q 0.52955 -0.30579 1.0321 -0.62689 A 18.1524 18.1524 0 0 1 14.78033 16.741 Z m 0.44629 -4.74268 q 0.00111 0.91095 -0.05688 1.82044 c -0.49268 0.33343 -1.01282 0.659 -1.554 0.97143 c -0.53894 0.31116 -1.07293 0.59711 -1.59674 0.8559 q -0.82682 -0.39624 -1.62176 -0.854 q -0.79047 -0.455 -1.54468 -0.969 q -0.06894 -0.90921 -0.06946 -1.82172 l 0.00012 0.00019 q -0.00063 -0.91187 0.06794 -1.82184 c 0.49255 -0.33637 1.00891 -0.66168 1.54278 -0.96991 c 0.53632 -0.30969 1.077 -0.59442 1.61469 -0.85248 q 0.81664 0.39688 1.60382 0.85065 q 0.78992 0.454 1.549 0.95868 q 0.06519 0.91443 0.06524 1.83166 Z m 0.95673 -5.09283 c 1.92133 -0.37372 3.37 -0.12232 3.73291 0.50622 c 0.3866 0.66962 -0.16748 2.1485 -1.55383 3.70636 l -0.00006 0.00006 q -0.1149 0.12891 -0.23841 0.25891 A 20.06118 20.06118 0 0 0 15.98 9.68915 a 20.04054 20.04054 0 0 0 -0.40546 -2.64893 Q 15.88486 6.96387 16.18335 6.90546 Z m -0.12988 3.8847 A 18.16447 18.16447 0 0 1 17.51483 11.978 a 18.11912 18.11912 0 0 1 -1.45672 1.20831 q 0.02325 -0.59391 0.02288 -1.18842 Q 16.08072 11.39389 16.05347 10.79016 Z m 3.8681 5.78876 c -0.36346 0.63116 -1.76788 0.89435 -3.65222 0.53784 q -0.32391 -0.06115 -0.66474 -0.14557 a 20.069 20.069 0 0 0 0.38746 -2.68176 a 19.93914 19.93914 0 0 0 2.13708 -1.71588 q 0.17643 0.18329 0.33563 0.36487 v -0.00007 a 7.23437 7.23437 0 0 1 1.40308 2.23792 A 1.76563 1.76563 0 0 1 19.92157 16.57892 Z" stroke-linecap="round" />
</g>
</svg>